:SAMPLES-PER-SECOND 30
:FULLY-SPECIFIED
:DEGREES
91
root  35.02381392 36.5122307 -14.72236153 11.47457886 9.031802177 3.936684847
lowerback  -8.53098011 2.527659893 2.903790474
upperback  -4.502920151 2.763459921 -4.358819962
thorax  0.4632290006 1.110990047 -5.927140236
lowerneck  -15.2020998 -3.032119989 -0.5818290114
upperneck  11.59860039 -5.069210052 6.220339775
head  6.198979855 -2.05230999 1.575469971
lclavicle  0 -4.497500157e-015 -2.743230041e-014
lhumerus  -43.43980026 27.36199951 68.48320007
lradius  -0.09165548533 -6.507048965e-006 26.28630066
lwrist  4.824992743e-007 -3.790274832e-007 -33.94729996
lhand  -0 -36.96749878 -10.66009998
lfingers  90 7.125020027 -90
lthumb  94.84449732 -25.49376558 101.1398403
rclavicle  0 -4.497500157e-015 -2.743230041e-014
rhumerus  45.33660126 -4.730079174 -54.02569962
rradius  -5.16745672e-007 2.214343908e-008 69.13349915
rwrist  1.380293725e-006 2.528095422e-007 -170.3990021
rhand  -1.769229933e-031 3.689779997 -6.684559822
rfingers  -90 -7.125020027 -90
rthumb  -84.81021591 -9.223494882 -60.46158511
rfemur  -14.15505409 11.60684013 14.27920914
rtibia  -2.247602701 1.900932193 22.94940376
rfoot  -2.034485817 -15.76894474 -43.35430527
rtoes  4.165023365 19.57890058 -102.2603419
lfemur  -12.27038956 -20.76742935 -18.33861542
ltibia  2.978284597 2.36760664 15.20475578
lfoot  0.6540712714 -29.88145065 30.26973152
ltoes  -8.516563034 -18.16364206 -115.658208
92
root  35.02155815 36.51189429 -14.72268142 11.49872017 9.227212906 3.977298021
lowerback  -8.519799232 2.57088995 2.975409746
upperback  -4.514949799 2.815730095 -4.397990227
thorax  0.4561229944 1.135200024 -6.005109787
lowerneck  -15.15279961 -3.13538003 -0.6779239774
upperneck  11.53789997 -5.202250004 6.326469898
head  6.181779861 -2.116050005 1.61202991
lclavicle  0 -4.497500157e-015 -2.743230041e-014
lhumerus  -43.40409851 27.29579926 68.4858017
lradius  -0.09213047475 -6.507048965e-006 26.26309967
lwrist  4.824992743e-007 -3.790274832e-007 -33.97679901
lhand  -0 -36.98609924 -10.67749977
lfingers  90 7.125020027 -90
lthumb  94.85697402 -25.5101971 101.1614007
rclavicle  0 -4.497500157e-015 -2.743230041e-014
rhumerus  46.18429565 -4.922698975 -53.72600174
rradius  -5.16745672e-007 2.214343908e-008 68.21970367
rwrist  1.380293725e-006 2.528095422e-007 -170.1349945
rhand  -1.769483897e-031 3.81517005 -6.705230236
rfingers  -90 -7.125020027 -90
rthumb  -84.79081997 -9.21273335 -60.34080868
rfemur  -14.16907883 11.5615263 14.29392624
rtibia  -2.293021679 1.946907759 23.0117321
rfoot  -2.071775198 -15.63261318 -43.45985794
rtoes  4.150123384 19.58194555 -102.2158815
lfemur  -12.27601433 -20.87527657 -18.36021423
ltibia  3.020134449 2.385426283 15.16285419
lfoot  0.6584134698 -29.89400101 30.19311714
ltoes  -8.520002501 -18.16207178 -115.6692419
93
root  35.02045579 36.51222169 -14.72272047 11.52341557 9.417430878 3.977855206
lowerback  -8.527580261 2.601830244 2.951860428
upperback  -4.499489784 2.860729933 -4.418950081
thorax  0.482069999 1.15952003 -6.008759975
lowerneck  -15.14420033 -3.239579916 -0.7640709877
upperneck  11.47830009 -5.328380108 6.379179955
head  6.169789791 -2.178410053 1.630290031
lclavicle  0 -4.497500157e-015 -2.743230041e-014
lhumerus  -43.3728981 27.41880035 68.43460083
lradius  -0.09260325879 -6.507048965e-006 26.19389915
lwrist  4.824992743e-007 -3.790274832e-007 -34.10630035
lhand  -4.424073174e-031 -37.04510117 -10.63290024
lfingers  90 7.125020027 -90
lthumb  94.8749444 -25.4642751 101.220221
rclavicle  0 -4.497500157e-015 -2.743230041e-014
rhumerus  47.145401 -5.161419392 -53.75080109
rradius  -5.16745672e-007 2.214343908e-008 67.12409973
rwrist  1.380293725e-006 2.528095422e-007 -169.6580048
rhand  -1.769638061e-031 3.889300108 -6.919859886
rfingers  -90 -7.125020027 -90
rthumb  -84.88097321 -9.030612736 -60.28548092
rfemur  -14.16306114 11.49513435 14.34278011
rtibia  -2.318245649 1.978335023 23.00537682
rfoot  -2.064926624 -15.53588581 -43.51873398
rtoes  4.18977977 19.57381598 -102.3342277
lfemur  -12.39893818 -21.03549385 -18.28985405
ltibia  2.974294662 2.369448185 15.29424381
lfoot  0.6579098105 -29.907444 30.12636375
ltoes  -8.451836462 -18.19304598 -115.4507352
94
root  35.0178666 36.51250404 -14.7214469 11.5682478 9.620072365 4.024359703
lowerback  -8.513680458 2.633239985 2.970050097
upperback  -4.500780106 2.902549982 -4.440410137
thorax  0.4802300036 1.18035996 -6.038219929
lowerneck  -15.0948 -3.345099926 -0.7700260282
upperneck  11.43050003 -5.465579987 6.374629974
head  6.151420116 -2.247920036 1.616770029
lclavicle  0 -4.497500157e-015 -2.743230041e-014
lhumerus  -43.33720016 27.37739944 68.43440247
lradius  -0.09307385236 -6.507048965e-006 26.16249847
lwrist  4.824992743e-007 -3.790274832e-007 -34.05970001
lhand  -4.424282844e-031 -37.04869843 -10.64490032
lfingers  90 7.125020027 -90
lthumb  94.87930475 -25.4760343 101.2253345
rclavicle  0 -4.497500157e-015 -2.743230041e-014
rhumerus  48.04569626 -5.457649708 -53.7541008
rradius  -5.16745672e-007 2.214343908e-008 66.03579712
rwrist  1.380293725e-006 2.528095422e-007 -169.2700043
rhand  -1.770222602e-031 4.158299923 -6.847420216
rfingers  -90 -7.125020027 -90
rthumb  -84.78087114 -9.109478964 -60.01714305
rfemur  -14.20993519 11.45910358 14.35580921
rtibia  -2.377093792 2.00662446 23.08651352
rfoot  -2.101492882 -15.41602993 -43.6109581
rtoes  4.200630217 19.57157748 -102.3666168
lfemur  -12.44865322 -21.13971138 -18.3053894
ltibia  3.00280261 2.363267183 15.28649235
lfoot  0.6468049884 -29.87416077 30.00428581
ltoes  -8.453364206 -18.19235517 -115.4556284
95
root  35.01345717 36.51132358 -14.72129221 11.60357571 9.839775085 4.116365433
lowerback  -8.514410019 2.640759945 3.019890308
upperback  -4.505320072 2.91050005 -4.434529781
thorax  0.4789229929 1.18434 -6.059840202
lowerneck  -15.08399963 -3.422610044 -0.7779110074
upperneck  11.40240002 -5.563809872 6.360129833
head  6.144030094 -2.297770023 1.603819966
lclavicle  0 -4.497500157e-015 -2.743230041e-014
lhumerus  -43.3504982 27.39769936 68.40809631
lradius  -0.09354224056 -6.507048965e-006 26.18229866
lwrist  4.824992743e-007 -3.790274832e-007 -34.10779953
lhand  -4.420563922e-031 -36.98479843 -10.71949959
lfingers  90 7.125020027 -90
lthumb  94.8653185 -25.551521 101.1637384
rclavicle  0 -4.497500157e-015 -2.743230041e-014
rhumerus  48.93659973 -5.660280228 -53.59500122
rradius  -5.16745672e-007 2.214343908e-008 65.01049805
rwrist  1.380293725e-006 2.528095422e-007 -168.8890076
rhand  -1.769851709e-031 3.989739895 -6.760369778
rfingers  -90 -7.125020027 -90
rthumb  -84.77701766 -9.175002644 -60.17472791
rfemur  -14.26302814 11.44399738 14.34017372
rtibia  -2.459967136 2.052305698 23.23863029
rfoot  -2.180287361 -15.24643803 -43.75046539
rtoes  4.197864485 19.57214864 -102.3583607
lfemur  -12.40048599 -21.28170395 -18.40808868
ltibia  3.097332478 2.36106658 15.14588165
lfoot  0.6340346336 -29.79959679 29.89836311
ltoes  -8.48598485 -18.1775678 -115.5601531
